<svg width="25" height="24" viewBox="0 0 25 24" fill="none" xmlns="http://www.w3.org/2000/svg">
<path d="M9.97957 5.83003L10.0996 5.89003C10.5846 6.14003 10.9796 6.53503 11.2296 7.02003L11.2896 7.14003C11.5296 7.61503 12.2096 7.61503 12.4546 7.14003L12.5146 7.02003C12.7646 6.53503 13.1596 6.14003 13.6446 5.89003L13.7646 5.83003C14.2396 5.59003 14.2396 4.91003 13.7646 4.66503L13.6446 4.60503C13.1596 4.35503 12.7646 3.96003 12.5146 3.47503L12.4546 3.35503C12.2146 2.88003 11.5346 2.88003 11.2896 3.35503L11.2296 3.47503C10.9796 3.96003 10.5846 4.35503 10.0996 4.60503L9.97957 4.66503C9.50457 4.90503 9.50457 5.58503 9.97957 5.83003Z" fill="#8043F9"/>
<path d="M10.9246 10.515C11.4146 10.265 11.4146 9.57003 10.9246 9.32003L10.1946 8.94503C9.54457 8.61003 9.01457 8.08003 8.67957 7.43003L8.30457 6.70003C8.05457 6.21003 7.35957 6.21003 7.10957 6.70003L6.73457 7.43003C6.39957 8.08003 5.86957 8.61003 5.21957 8.94503L4.48957 9.32003C3.99957 9.57003 3.99957 10.265 4.48957 10.515L5.21957 10.89C5.86957 11.225 6.39957 11.755 6.73457 12.405L7.10957 13.135C7.35957 13.625 8.05457 13.625 8.30457 13.135L8.67957 12.405C9.01457 11.755 9.54457 11.225 10.1946 10.89L10.9246 10.515Z" fill="#8043F9"/>
<path d="M20.3046 13.505L19.5646 13.125C18.6696 12.67 17.9546 11.955 17.4996 11.06L17.1196 10.32C16.7846 9.66003 16.1146 9.25003 15.3746 9.25003C14.6346 9.25003 13.9646 9.66003 13.6296 10.32L13.2496 11.06C12.7946 11.955 12.0796 12.67 11.1846 13.125L10.4446 13.505C9.78457 13.84 9.37457 14.51 9.37457 15.25C9.37457 15.99 9.78457 16.66 10.4446 16.995L11.1846 17.375C12.0796 17.83 12.7946 18.545 13.2496 19.44L13.6296 20.18C13.9646 20.84 14.6346 21.25 15.3746 21.25C16.1146 21.25 16.7846 20.84 17.1196 20.18L17.4996 19.44C17.9546 18.545 18.6696 17.83 19.5646 17.375L20.3046 16.995C20.9646 16.66 21.3746 15.99 21.3746 15.25C21.3746 14.51 20.9646 13.84 20.3046 13.505ZM19.6246 15.66L18.8846 16.04C17.7046 16.64 16.7646 17.58 16.1646 18.76L15.7846 19.5C15.6696 19.725 15.4596 19.75 15.3746 19.75C15.2896 19.75 15.0796 19.725 14.9646 19.5L14.5846 18.76C13.9846 17.58 13.0446 16.64 11.8646 16.04L11.1246 15.66C10.8996 15.545 10.8746 15.335 10.8746 15.25C10.8746 15.165 10.8996 14.955 11.1246 14.84L11.8646 14.46C13.0446 13.86 13.9846 12.92 14.5846 11.74L14.9646 11C15.0796 10.775 15.2896 10.75 15.3746 10.75C15.4596 10.75 15.6696 10.775 15.7846 11L16.1646 11.74C16.7646 12.92 17.7046 13.86 18.8846 14.46L19.6246 14.84C19.8496 14.955 19.8746 15.165 19.8746 15.25C19.8746 15.335 19.8496 15.545 19.6246 15.66Z" fill="#8043F9"/>
</svg>
