<svg width="172" height="35" viewBox="0 0 172 35" fill="none" xmlns="http://www.w3.org/2000/svg">
<path d="M171.46 7.81099V11.3905H160.172V7.81099H171.46ZM162.959 3.10645H167.587V21.5411C167.587 22.1633 167.68 22.6405 167.868 22.9729C168.064 23.2968 168.32 23.5184 168.635 23.6377C168.95 23.757 169.3 23.8167 169.683 23.8167C169.973 23.8167 170.237 23.7954 170.476 23.7528C170.723 23.7101 170.911 23.6718 171.038 23.6377L171.818 27.2556C171.571 27.3408 171.217 27.4346 170.757 27.5368C170.305 27.6391 169.751 27.6988 169.095 27.7158C167.936 27.7499 166.892 27.5752 165.963 27.1917C165.034 26.7996 164.297 26.1945 163.751 25.3763C163.214 24.5582 162.95 23.5354 162.959 22.3082V3.10645Z" fill="white"/>
<path d="M146.634 27.8435C145.389 27.8435 144.268 27.6219 143.271 27.1788C142.283 26.7271 141.499 26.0623 140.919 25.1844C140.348 24.3066 140.062 23.2242 140.062 21.9373C140.062 20.8293 140.267 19.9131 140.676 19.1887C141.085 18.4643 141.643 17.8847 142.351 17.4501C143.058 17.0154 143.855 16.6873 144.741 16.4657C145.636 16.2356 146.561 16.0694 147.516 15.9671C148.666 15.8478 149.599 15.7413 150.315 15.6475C151.031 15.5452 151.551 15.3918 151.875 15.1873C152.207 14.9742 152.374 14.6461 152.374 14.2029V14.1262C152.374 13.1631 152.088 12.4174 151.517 11.889C150.946 11.3606 150.124 11.0964 149.05 11.0964C147.916 11.0964 147.017 11.3435 146.352 11.8378C145.696 12.3322 145.253 12.916 145.023 13.5893L140.702 12.9756C141.043 11.7824 141.605 10.7853 142.389 9.98415C143.173 9.17449 144.132 8.56938 145.266 8.16881C146.399 7.75972 147.652 7.55518 149.024 7.55518C149.97 7.55518 150.912 7.66597 151.849 7.88756C152.787 8.10915 153.643 8.47563 154.419 8.98699C155.195 9.48983 155.817 10.1759 156.286 11.0452C156.763 11.9145 157.001 13.0012 157.001 14.3052V27.4472H152.553V24.7498H152.399C152.118 25.2952 151.722 25.8066 151.21 26.2839C150.707 26.7526 150.072 27.1319 149.305 27.4217C148.547 27.7029 147.656 27.8435 146.634 27.8435ZM147.835 24.443C148.764 24.443 149.57 24.2597 150.251 23.8932C150.933 23.5182 151.457 23.0239 151.824 22.4103C152.199 21.7967 152.386 21.1276 152.386 20.4032V18.0893C152.241 18.2086 151.994 18.3194 151.645 18.4217C151.304 18.5239 150.92 18.6134 150.494 18.6901C150.068 18.7668 149.646 18.835 149.229 18.8947C148.811 18.9543 148.449 19.0055 148.142 19.0481C147.452 19.1418 146.834 19.2952 146.288 19.5083C145.743 19.7214 145.313 20.0197 144.997 20.4032C144.682 20.7782 144.524 21.264 144.524 21.8606C144.524 22.7128 144.835 23.3563 145.457 23.791C146.08 24.2256 146.872 24.443 147.835 24.443Z" fill="white"/>
<path d="M123.533 15.9418V27.4474H118.905V1.26562H123.43V11.1477H123.66C124.121 10.0398 124.832 9.16619 125.795 8.52699C126.767 7.87926 128.003 7.5554 129.503 7.5554C130.866 7.5554 132.055 7.84091 133.07 8.41193C134.084 8.98295 134.868 9.81818 135.422 10.9176C135.984 12.017 136.266 13.3594 136.266 14.9446V27.4474H131.638V15.6605C131.638 14.3395 131.297 13.3125 130.615 12.5795C129.942 11.8381 128.996 11.4673 127.777 11.4673C126.959 11.4673 126.226 11.6463 125.578 12.0043C124.939 12.3537 124.436 12.8608 124.07 13.5256C123.712 14.1903 123.533 14.9957 123.533 15.9418Z" fill="white"/>
<path d="M106.693 27.8307C104.733 27.8307 103.049 27.4003 101.643 26.5396C100.245 25.6788 99.1672 24.4898 98.4087 22.9728C97.6587 21.4472 97.2837 19.6915 97.2837 17.7057C97.2837 15.7114 97.6672 13.9515 98.4343 12.4259C99.2013 10.8918 100.284 9.69864 101.681 8.84637C103.088 7.98557 104.75 7.55518 106.667 7.55518C108.261 7.55518 109.671 7.84921 110.899 8.43728C112.135 9.01682 113.119 9.83927 113.852 10.9046C114.585 11.9614 115.002 13.1972 115.105 14.612H110.681C110.502 13.666 110.076 12.8776 109.403 12.2469C108.738 11.6077 107.848 11.2881 106.731 11.2881C105.785 11.2881 104.954 11.5438 104.238 12.0552C103.522 12.558 102.964 13.2824 102.564 14.2285C102.171 15.1745 101.975 16.308 101.975 17.629C101.975 18.9671 102.171 20.1177 102.564 21.0807C102.956 22.0353 103.505 22.7725 104.213 23.2924C104.929 23.8038 105.768 24.0594 106.731 24.0594C107.413 24.0594 108.022 23.9316 108.559 23.6759C109.105 23.4117 109.561 23.0324 109.927 22.5381C110.294 22.0438 110.545 21.443 110.681 20.7356H115.105C114.994 22.1248 114.585 23.3563 113.877 24.4302C113.17 25.4955 112.207 26.3307 110.988 26.9359C109.769 27.5324 108.338 27.8307 106.693 27.8307Z" fill="white"/>
<path d="M90.5368 27.7288C89.7612 27.7288 89.0965 27.4561 88.5425 26.9106C87.9885 26.3652 87.7158 25.7004 87.7243 24.9163C87.7158 24.1493 87.9885 23.493 88.5425 22.9476C89.0965 22.4021 89.7612 22.1294 90.5368 22.1294C91.2868 22.1294 91.9388 22.4021 92.4928 22.9476C93.0553 23.493 93.3408 24.1493 93.3493 24.9163C93.3408 25.4362 93.2044 25.9092 92.9402 26.3354C92.6845 26.7615 92.3436 27.1024 91.9175 27.3581C91.4999 27.6052 91.0397 27.7288 90.5368 27.7288Z" fill="white"/>
<path d="M86.1009 7.8113V11.3908H74.4929V7.8113H86.1009ZM77.3949 27.4477V5.95761C77.3949 4.63659 77.6676 3.53715 78.2131 2.65931C78.7671 1.78147 79.5085 1.12522 80.4375 0.690563C81.3665 0.255904 82.3977 0.0385742 83.5313 0.0385742C84.3324 0.0385742 85.0441 0.102495 85.6662 0.230337C86.2884 0.358178 86.7486 0.473234 87.0469 0.575507L86.1264 4.15505C85.9304 4.09539 85.6833 4.03573 85.385 3.97607C85.0867 3.90789 84.7543 3.8738 84.3878 3.8738C83.527 3.8738 82.9176 4.08261 82.5597 4.50022C82.2102 4.90931 82.0355 5.49738 82.0355 6.26443V27.4477H77.3949Z" fill="white"/>
<path d="M60.7659 27.7926C59.2233 27.7926 57.8426 27.3963 56.6239 26.6037C55.4051 25.8111 54.442 24.6605 53.7347 23.152C53.0273 21.6435 52.6736 19.8111 52.6736 17.6548C52.6736 15.473 53.0315 13.6321 53.7474 12.1321C54.4719 10.6236 55.4477 9.4858 56.675 8.71875C57.9023 7.94318 59.2702 7.5554 60.7787 7.5554C61.9293 7.5554 62.8753 7.75142 63.6168 8.14347C64.3582 8.52699 64.9463 8.99148 65.381 9.53693C65.8156 10.0739 66.1523 10.581 66.3909 11.0582H66.5827V1.26562H71.2233V27.4474H66.6722V24.3537H66.3909C66.1523 24.831 65.8071 25.3381 65.3554 25.875C64.9037 26.4034 64.3071 26.8551 63.5656 27.2301C62.8242 27.6051 61.8909 27.7926 60.7659 27.7926ZM62.0571 23.9957C63.0372 23.9957 63.8724 23.7315 64.5628 23.2031C65.2531 22.6662 65.7773 21.9205 66.1352 20.9659C66.4932 20.0114 66.6722 18.8991 66.6722 17.6293C66.6722 16.3594 66.4932 15.2557 66.1352 14.3182C65.7858 13.3807 65.2659 12.652 64.5756 12.1321C63.8938 11.6122 63.0543 11.3523 62.0571 11.3523C61.0259 11.3523 60.1651 11.6207 59.4747 12.1577C58.7844 12.6946 58.2645 13.4361 57.9151 14.3821C57.5656 15.3281 57.3909 16.4105 57.3909 17.6293C57.3909 18.8565 57.5656 19.9517 57.9151 20.9148C58.273 21.8693 58.7972 22.6236 59.4875 23.1776C60.1864 23.723 61.0429 23.9957 62.0571 23.9957Z" fill="white"/>
<path d="M30.979 34.8109V7.81086H35.5301V11.058H35.7986C36.0372 10.5807 36.3739 10.0736 36.8085 9.53671C37.2432 8.99125 37.8313 8.52677 38.5728 8.14324C39.3142 7.7512 40.2603 7.55518 41.4108 7.55518C42.9279 7.55518 44.2958 7.94296 45.5145 8.71853C46.7418 9.48557 47.7134 10.6234 48.4293 12.1319C49.1537 13.6319 49.5159 15.4728 49.5159 17.6546C49.5159 19.8109 49.1622 21.6432 48.4549 23.1518C47.7475 24.6603 46.7844 25.8109 45.5657 26.6035C44.3469 27.3961 42.9662 27.7924 41.4236 27.7924C40.2986 27.7924 39.3654 27.6049 38.6239 27.2299C37.8824 26.8549 37.2858 26.4032 36.8341 25.8748C36.3909 25.3378 36.0458 24.8307 35.7986 24.3535H35.6068V34.8109H30.979ZM35.5174 17.629C35.5174 18.8989 35.6963 20.0111 36.0543 20.9657C36.4208 21.9202 36.9449 22.666 37.6267 23.2029C38.3171 23.7313 39.1523 23.9955 40.1324 23.9955C41.1551 23.9955 42.0117 23.7228 42.702 23.1773C43.3924 22.6234 43.9122 21.8691 44.2617 20.9145C44.6196 19.9515 44.7986 18.8563 44.7986 17.629C44.7986 16.4103 44.6239 15.3279 44.2745 14.3819C43.925 13.4359 43.4051 12.6944 42.7148 12.1574C42.0245 11.6205 41.1637 11.352 40.1324 11.352C39.1438 11.352 38.3043 11.612 37.6139 12.1319C36.9236 12.6518 36.3995 13.3805 36.0415 14.318C35.6921 15.2555 35.5174 16.3592 35.5174 17.629Z" fill="white"/>
<path d="M21.5923 27.4474V7.81108H26.2202V27.4474H21.5923ZM23.919 5.02415C23.1861 5.02415 22.5554 4.78125 22.027 4.29545C21.4986 3.80114 21.2344 3.20881 21.2344 2.51847C21.2344 1.8196 21.4986 1.22727 22.027 0.741476C22.5554 0.247159 23.1861 0 23.919 0C24.6605 0 25.2912 0.247159 25.8111 0.741476C26.3395 1.22727 26.6037 1.8196 26.6037 2.51847C26.6037 3.20881 26.3395 3.80114 25.8111 4.29545C25.2912 4.78125 24.6605 5.02415 23.919 5.02415Z" fill="white"/>
<path d="M6.57102 27.8435C5.3267 27.8435 4.20597 27.6219 3.20881 27.1788C2.22017 26.7271 1.43608 26.0623 0.856534 25.1844C0.285511 24.3066 0 23.2242 0 21.9373C0 20.8293 0.204545 19.9131 0.613636 19.1887C1.02273 18.4643 1.58097 17.8847 2.28835 17.4501C2.99574 17.0154 3.79261 16.6873 4.67898 16.4657C5.57386 16.2356 6.49858 16.0694 7.45313 15.9671C8.60369 15.8478 9.53693 15.7413 10.2528 15.6475C10.9688 15.5452 11.4886 15.3918 11.8125 15.1873C12.1449 14.9742 12.3111 14.6461 12.3111 14.2029V14.1262C12.3111 13.1631 12.0256 12.4174 11.4545 11.889C10.8835 11.3606 10.0611 11.0964 8.98722 11.0964C7.85369 11.0964 6.95455 11.3435 6.28977 11.8378C5.63352 12.3322 5.19034 12.916 4.96023 13.5893L0.639205 12.9756C0.980114 11.7824 1.54261 10.7853 2.3267 9.98415C3.1108 9.17449 4.0696 8.56938 5.20312 8.16881C6.33665 7.75972 7.58949 7.55518 8.96165 7.55518C9.90767 7.55518 10.8494 7.66597 11.7869 7.88756C12.7244 8.10915 13.581 8.47563 14.3565 8.98699C15.1321 9.48983 15.7543 10.1759 16.223 11.0452C16.7003 11.9145 16.9389 13.0012 16.9389 14.3052V27.4472H12.4901V24.7498H12.3366C12.0554 25.2952 11.6591 25.8066 11.1477 26.2839C10.6449 26.7526 10.0099 27.1319 9.2429 27.4217C8.48438 27.7029 7.59375 27.8435 6.57102 27.8435ZM7.77273 24.443C8.7017 24.443 9.5071 24.2597 10.1889 23.8932C10.8707 23.5182 11.3949 23.0239 11.7614 22.4103C12.1364 21.7967 12.3239 21.1276 12.3239 20.4032V18.0893C12.179 18.2086 11.9318 18.3194 11.5824 18.4217C11.2415 18.5239 10.858 18.6134 10.4318 18.6901C10.0057 18.7668 9.58381 18.835 9.16619 18.8947C8.74858 18.9543 8.38636 19.0055 8.07955 19.0481C7.3892 19.1418 6.77131 19.2952 6.22585 19.5083C5.6804 19.7214 5.25 20.0197 4.93466 20.4032C4.61932 20.7782 4.46165 21.264 4.46165 21.8606C4.46165 22.7128 4.77273 23.3563 5.39489 23.791C6.01705 24.2256 6.80966 24.443 7.77273 24.443Z" fill="white"/>
</svg>
