<svg width="172" height="35" viewBox="0 0 172 35" fill="none" xmlns="http://www.w3.org/2000/svg">
<path d="M171.46 7.81108V11.3906H160.172V7.81108H171.46ZM162.959 3.10654H167.587V21.5412C167.587 22.1634 167.68 22.6406 167.868 22.973C168.064 23.2969 168.32 23.5185 168.635 23.6378C168.95 23.7571 169.3 23.8168 169.683 23.8168C169.973 23.8168 170.237 23.7955 170.476 23.7528C170.723 23.7102 170.911 23.6719 171.038 23.6378L171.818 27.2557C171.571 27.3409 171.217 27.4347 170.757 27.5369C170.305 27.6392 169.751 27.6989 169.095 27.7159C167.936 27.75 166.892 27.5753 165.963 27.1918C165.034 26.7997 164.297 26.1946 163.751 25.3764C163.214 24.5582 162.95 23.5355 162.959 22.3082V3.10654Z" fill="black"/>
<path d="M146.634 27.8437C145.389 27.8437 144.268 27.6222 143.271 27.179C142.283 26.7273 141.499 26.0625 140.919 25.1847C140.348 24.3068 140.062 23.2244 140.062 21.9375C140.062 20.8295 140.267 19.9133 140.676 19.1889C141.085 18.4645 141.643 17.8849 142.351 17.4503C143.058 17.0156 143.855 16.6875 144.741 16.4659C145.636 16.2358 146.561 16.0696 147.516 15.9673C148.666 15.848 149.599 15.7415 150.315 15.6477C151.031 15.5454 151.551 15.392 151.875 15.1875C152.207 14.9744 152.374 14.6463 152.374 14.2031V14.1264C152.374 13.1633 152.088 12.4176 151.517 11.8892C150.946 11.3608 150.124 11.0966 149.05 11.0966C147.916 11.0966 147.017 11.3437 146.352 11.8381C145.696 12.3324 145.253 12.9162 145.023 13.5895L140.702 12.9758C141.043 11.7827 141.605 10.7855 142.389 9.98437C143.173 9.17471 144.132 8.56959 145.266 8.16902C146.399 7.75993 147.652 7.55539 149.024 7.55539C149.97 7.55539 150.912 7.66618 151.849 7.88777C152.787 8.10936 153.643 8.47584 154.419 8.98721C155.195 9.49005 155.817 10.1761 156.286 11.0454C156.763 11.9148 157.001 13.0014 157.001 14.3054V27.4474H152.553V24.75H152.399C152.118 25.2954 151.722 25.8068 151.21 26.2841C150.707 26.7528 150.072 27.1321 149.305 27.4219C148.547 27.7031 147.656 27.8437 146.634 27.8437ZM147.835 24.4432C148.764 24.4432 149.57 24.2599 150.251 23.8935C150.933 23.5185 151.457 23.0241 151.824 22.4105C152.199 21.7969 152.386 21.1278 152.386 20.4034V18.0895C152.241 18.2088 151.994 18.3196 151.645 18.4219C151.304 18.5241 150.92 18.6136 150.494 18.6903C150.068 18.767 149.646 18.8352 149.229 18.8949C148.811 18.9545 148.449 19.0057 148.142 19.0483C147.452 19.142 146.834 19.2954 146.288 19.5085C145.743 19.7216 145.313 20.0199 144.997 20.4034C144.682 20.7784 144.524 21.2642 144.524 21.8608C144.524 22.7131 144.835 23.3565 145.457 23.7912C146.08 24.2258 146.872 24.4432 147.835 24.4432Z" fill="black"/>
<path d="M123.533 15.9418V27.4474H118.905V1.26562H123.43V11.1477H123.66C124.121 10.0398 124.832 9.16619 125.795 8.52699C126.767 7.87926 128.003 7.5554 129.503 7.5554C130.866 7.5554 132.055 7.84091 133.07 8.41193C134.084 8.98295 134.868 9.81818 135.422 10.9176C135.984 12.017 136.266 13.3594 136.266 14.9446V27.4474H131.638V15.6605C131.638 14.3395 131.297 13.3125 130.615 12.5795C129.942 11.8381 128.996 11.4673 127.777 11.4673C126.959 11.4673 126.226 11.6463 125.578 12.0043C124.939 12.3537 124.436 12.8608 124.07 13.5256C123.712 14.1903 123.533 14.9957 123.533 15.9418Z" fill="black"/>
<path d="M106.693 27.831C104.733 27.831 103.049 27.4006 101.643 26.5398C100.245 25.679 99.1672 24.49 98.4087 22.973C97.6587 21.4474 97.2837 19.6918 97.2837 17.706C97.2837 15.7116 97.6672 13.9517 98.4343 12.4261C99.2013 10.892 100.284 9.69885 101.681 8.84658C103.088 7.98579 104.75 7.55539 106.667 7.55539C108.261 7.55539 109.671 7.84942 110.899 8.43749C112.135 9.01704 113.119 9.83948 113.852 10.9048C114.585 11.9616 115.002 13.1974 115.105 14.6122H110.681C110.502 13.6662 110.076 12.8778 109.403 12.2471C108.738 11.6079 107.848 11.2883 106.731 11.2883C105.785 11.2883 104.954 11.544 104.238 12.0554C103.522 12.5582 102.964 13.2827 102.564 14.2287C102.171 15.1747 101.975 16.3082 101.975 17.6293C101.975 18.9673 102.171 20.1179 102.564 21.081C102.956 22.0355 103.505 22.7727 104.213 23.2926C104.929 23.804 105.768 24.0597 106.731 24.0597C107.413 24.0597 108.022 23.9318 108.559 23.6761C109.105 23.4119 109.561 23.0327 109.927 22.5383C110.294 22.044 110.545 21.4432 110.681 20.7358H115.105C114.994 22.125 114.585 23.3565 113.877 24.4304C113.17 25.4957 112.207 26.331 110.988 26.9361C109.769 27.5327 108.338 27.831 106.693 27.831Z" fill="black"/>
<path d="M90.5369 27.7287C89.7614 27.7287 89.0966 27.456 88.5426 26.9105C87.9886 26.3651 87.7159 25.7003 87.7244 24.9162C87.7159 24.1492 87.9886 23.4929 88.5426 22.9475C89.0966 22.402 89.7614 22.1293 90.5369 22.1293C91.2869 22.1293 91.9389 22.402 92.4929 22.9475C93.0554 23.4929 93.3409 24.1492 93.3494 24.9162C93.3409 25.4361 93.2046 25.9091 92.9403 26.3352C92.6847 26.7614 92.3438 27.1023 91.9176 27.358C91.5 27.6051 91.0398 27.7287 90.5369 27.7287Z" fill="black"/>
<path d="M86.1009 7.81109V11.3906H74.4929V7.81109H86.1009ZM77.3949 27.4475V5.9574C77.3949 4.63637 77.6676 3.53694 78.2131 2.6591C78.7671 1.78126 79.5085 1.12501 80.4375 0.69035C81.3665 0.25569 82.3977 0.0383606 83.5313 0.0383606C84.3324 0.0383606 85.0441 0.102282 85.6662 0.230124C86.2884 0.357964 86.7486 0.473021 87.0469 0.575294L86.1264 4.15484C85.9304 4.09518 85.6833 4.03552 85.385 3.97586C85.0867 3.90768 84.7543 3.87359 84.3878 3.87359C83.527 3.87359 82.9176 4.0824 82.5597 4.50001C82.2102 4.9091 82.0355 5.49717 82.0355 6.26421V27.4475H77.3949Z" fill="black"/>
<path d="M60.766 27.7926C59.2234 27.7926 57.8427 27.3963 56.624 26.6037C55.4052 25.8111 54.4422 24.6605 53.7348 23.152C53.0274 21.6435 52.6737 19.8111 52.6737 17.6548C52.6737 15.473 53.0317 13.6321 53.7476 12.1321C54.472 10.6236 55.4479 9.4858 56.6751 8.71875C57.9024 7.94318 59.2703 7.5554 60.7788 7.5554C61.9294 7.5554 62.8754 7.75142 63.6169 8.14347C64.3584 8.52699 64.9464 8.99148 65.3811 9.53693C65.8158 10.0739 66.1524 10.581 66.391 11.0582H66.5828V1.26562H71.2234V27.4474H66.6723V24.3537H66.391C66.1524 24.831 65.8072 25.3381 65.3555 25.875C64.9038 26.4034 64.3072 26.8551 63.5658 27.2301C62.8243 27.6051 61.891 27.7926 60.766 27.7926ZM62.0572 23.9957C63.0373 23.9957 63.8726 23.7315 64.5629 23.2031C65.2532 22.6662 65.7774 21.9205 66.1353 20.9659C66.4933 20.0114 66.6723 18.8991 66.6723 17.6293C66.6723 16.3594 66.4933 15.2557 66.1353 14.3182C65.7859 13.3807 65.266 12.652 64.5757 12.1321C63.8939 11.6122 63.0544 11.3523 62.0572 11.3523C61.026 11.3523 60.1652 11.6207 59.4748 12.1577C58.7845 12.6946 58.2646 13.4361 57.9152 14.3821C57.5657 15.3281 57.391 16.4105 57.391 17.6293C57.391 18.8565 57.5657 19.9517 57.9152 20.9148C58.2731 21.8693 58.7973 22.6236 59.4876 23.1776C60.1865 23.723 61.043 23.9957 62.0572 23.9957Z" fill="black"/>
<path d="M30.979 34.8111V7.81107H35.5301V11.0582H35.7986C36.0372 10.581 36.3739 10.0739 36.8085 9.53692C37.2432 8.99147 37.8313 8.52698 38.5728 8.14346C39.3142 7.75141 40.2603 7.55539 41.4108 7.55539C42.9279 7.55539 44.2958 7.94317 45.5145 8.71874C46.7418 9.48579 47.7134 10.6236 48.4293 12.1321C49.1537 13.6321 49.5159 15.473 49.5159 17.6548C49.5159 19.8111 49.1622 21.6435 48.4549 23.152C47.7475 24.6605 46.7844 25.8111 45.5657 26.6037C44.3469 27.3963 42.9662 27.7926 41.4236 27.7926C40.2986 27.7926 39.3654 27.6051 38.6239 27.2301C37.8824 26.8551 37.2858 26.4034 36.8341 25.875C36.3909 25.3381 36.0458 24.831 35.7986 24.3537H35.6068V34.8111H30.979ZM35.5174 17.6293C35.5174 18.8991 35.6963 20.0114 36.0543 20.9659C36.4208 21.9204 36.9449 22.6662 37.6267 23.2031C38.3171 23.7315 39.1523 23.9957 40.1324 23.9957C41.1551 23.9957 42.0117 23.723 42.702 23.1775C43.3924 22.6236 43.9122 21.8693 44.2617 20.9148C44.6196 19.9517 44.7986 18.8565 44.7986 17.6293C44.7986 16.4105 44.6239 15.3281 44.2745 14.3821C43.925 13.4361 43.4051 12.6946 42.7148 12.1577C42.0245 11.6207 41.1637 11.3523 40.1324 11.3523C39.1438 11.3523 38.3043 11.6122 37.6139 12.1321C36.9236 12.652 36.3995 13.3807 36.0415 14.3182C35.6921 15.2557 35.5174 16.3594 35.5174 17.6293Z" fill="black"/>
<path d="M21.5923 27.4474V7.81108H26.2202V27.4474H21.5923ZM23.919 5.02415C23.1861 5.02415 22.5554 4.78125 22.027 4.29545C21.4986 3.80114 21.2344 3.20881 21.2344 2.51847C21.2344 1.8196 21.4986 1.22727 22.027 0.741476C22.5554 0.247159 23.1861 0 23.919 0C24.6605 0 25.2912 0.247159 25.8111 0.741476C26.3395 1.22727 26.6037 1.8196 26.6037 2.51847C26.6037 3.20881 26.3395 3.80114 25.8111 4.29545C25.2912 4.78125 24.6605 5.02415 23.919 5.02415Z" fill="black"/>
<path d="M6.57102 27.8437C5.3267 27.8437 4.20597 27.6222 3.20881 27.179C2.22017 26.7273 1.43608 26.0625 0.856534 25.1847C0.285511 24.3068 0 23.2244 0 21.9375C0 20.8295 0.204545 19.9133 0.613636 19.1889C1.02273 18.4645 1.58097 17.8849 2.28835 17.4503C2.99574 17.0156 3.79261 16.6875 4.67898 16.4659C5.57386 16.2358 6.49858 16.0696 7.45313 15.9673C8.60369 15.848 9.53693 15.7415 10.2528 15.6477C10.9688 15.5454 11.4886 15.392 11.8125 15.1875C12.1449 14.9744 12.3111 14.6463 12.3111 14.2031V14.1264C12.3111 13.1633 12.0256 12.4176 11.4545 11.8892C10.8835 11.3608 10.0611 11.0966 8.98722 11.0966C7.85369 11.0966 6.95455 11.3437 6.28977 11.8381C5.63352 12.3324 5.19034 12.9162 4.96023 13.5895L0.639205 12.9758C0.980114 11.7827 1.54261 10.7855 2.3267 9.98437C3.1108 9.17471 4.0696 8.56959 5.20312 8.16902C6.33665 7.75993 7.58949 7.55539 8.96165 7.55539C9.90767 7.55539 10.8494 7.66618 11.7869 7.88777C12.7244 8.10936 13.581 8.47584 14.3565 8.98721C15.1321 9.49005 15.7543 10.1761 16.223 11.0454C16.7003 11.9148 16.9389 13.0014 16.9389 14.3054V27.4474H12.4901V24.75H12.3366C12.0554 25.2954 11.6591 25.8068 11.1477 26.2841C10.6449 26.7528 10.0099 27.1321 9.2429 27.4219C8.48438 27.7031 7.59375 27.8437 6.57102 27.8437ZM7.77273 24.4432C8.7017 24.4432 9.5071 24.2599 10.1889 23.8935C10.8707 23.5185 11.3949 23.0241 11.7614 22.4105C12.1364 21.7969 12.3239 21.1278 12.3239 20.4034V18.0895C12.179 18.2088 11.9318 18.3196 11.5824 18.4219C11.2415 18.5241 10.858 18.6136 10.4318 18.6903C10.0057 18.767 9.58381 18.8352 9.16619 18.8949C8.74858 18.9545 8.38636 19.0057 8.07955 19.0483C7.3892 19.142 6.77131 19.2954 6.22585 19.5085C5.6804 19.7216 5.25 20.0199 4.93466 20.4034C4.61932 20.7784 4.46165 21.2642 4.46165 21.8608C4.46165 22.7131 4.77273 23.3565 5.39489 23.7912C6.01705 24.2258 6.80966 24.4432 7.77273 24.4432Z" fill="black"/>
</svg>
