<svg width="25" height="25" viewBox="0 0 25 25" fill="none" xmlns="http://www.w3.org/2000/svg">
<path fill-rule="evenodd" clip-rule="evenodd" d="M20.8482 2.59951C20.3159 2.07201 19.4535 2.07234 18.9216 2.60025L12.7877 8.68817L12.5089 8.41156C11.173 9.12121 9.76767 9.67951 8.26529 9.92796C6.45145 10.2279 4.62484 10.3505 2.78794 10.3505C2.27092 16.5065 7.10296 21.726 13.3521 21.1623L13.5702 20.7295C14.2639 19.353 14.9386 17.3345 15.4316 15.704C15.7769 14.562 16.0917 13.4122 16.3835 12.2559L16.2164 12.0901L22.3513 6.00127C22.8833 5.47311 22.8828 4.61686 22.3504 4.08908L20.8482 2.59951ZM14.026 9.91675L14.9782 10.8615L20.8379 5.0457L19.8854 4.10123L14.026 9.91675ZM10.1424 11.2759L13.8341 14.9388C14.1031 14.0362 14.3159 13.2563 14.4409 12.7856L12.1691 10.5315C11.7055 10.7385 10.9992 11.0258 10.1424 11.2759ZM13.2445 16.811L8.10584 11.7124C6.58853 11.9409 5.25898 12.0299 4.44411 12.0651C4.55597 16.1964 8.33011 19.5612 12.2191 19.5015C12.571 18.7263 12.9228 17.7736 13.2445 16.811Z" fill="black"/>
<path d="M1.75 16.2041L2.02009 16.934L2.75 17.2041L2.02009 17.4742L1.75 18.2041L1.47991 17.4742L0.75 17.2041L1.47991 16.934L1.75 16.2041Z" fill="black"/>
<path d="M3.25 18.2041L3.92523 20.0289L5.75 20.7041L3.92523 21.3793L3.25 23.2041L2.57477 21.3793L0.75 20.7041L2.57477 20.0289L3.25 18.2041Z" fill="black"/>
</svg>
