<svg width="20" height="21" viewBox="0 0 20 21" fill="none" xmlns="http://www.w3.org/2000/svg">
<g clip-path="url(#clip0_213_419)">
<path d="M4.58367 12.8847H3.78234C3.35729 12.8847 2.94965 12.7158 2.64909 12.4153C2.34854 12.1147 2.17969 11.7071 2.17969 11.282V4.07006C2.17969 3.64501 2.34854 3.23737 2.64909 2.93681C2.94965 2.63626 3.35729 2.46741 3.78234 2.46741H10.9943C11.4194 2.46741 11.827 2.63626 12.1276 2.93681C12.4281 3.23737 12.597 3.64501 12.597 4.07006V4.87139M9.39164 8.07671H16.6036C17.4887 8.07671 18.2063 8.79424 18.2063 9.67936V16.8913C18.2063 17.7764 17.4887 18.494 16.6036 18.494H9.39164C8.50652 18.494 7.78899 17.7764 7.78899 16.8913V9.67936C7.78899 8.79424 8.50652 8.07671 9.39164 8.07671Z" stroke="#667085" stroke-width="1.60266" stroke-linecap="round" stroke-linejoin="round"/>
</g>
<defs>
<clipPath id="clip0_213_419">
<rect width="19.2319" height="19.2319" fill="white" transform="translate(0.577148 0.864746)"/>
</clipPath>
</defs>
</svg>
