<svg width="20" height="21" viewBox="0 0 20 21" fill="none" xmlns="http://www.w3.org/2000/svg">
<g clip-path="url(#clip0_213_423)">
<path d="M6.98758 14.4873L10.1929 17.6926M10.1929 17.6926L13.3982 14.4873M10.1929 17.6926V10.4807M17.3087 15.3608C18.0054 14.8709 18.5278 14.1717 18.8002 13.3648C19.0726 12.5579 19.0808 11.6851 18.8235 10.8732C18.5663 10.0613 18.057 9.35249 17.3696 8.84964C16.6823 8.34678 15.8525 8.07604 15.0009 8.07671H13.9912C13.7502 7.13745 13.2992 6.2651 12.6723 5.52534C12.0454 4.78558 11.2588 4.19768 10.3718 3.80591C9.48473 3.41414 8.52039 3.22869 7.55133 3.26354C6.58227 3.29839 5.63374 3.55262 4.77716 4.0071C3.92057 4.46158 3.17824 5.10446 2.60606 5.88734C2.03389 6.67022 1.64677 7.57271 1.47385 8.52685C1.30093 9.481 1.34671 10.4619 1.60776 11.3958C1.86881 12.3297 2.33832 13.1922 2.98094 13.9184" stroke="#667085" stroke-width="1.60266" stroke-linecap="round" stroke-linejoin="round"/>
</g>
<defs>
<clipPath id="clip0_213_423">
<rect width="19.2319" height="19.2319" fill="white" transform="translate(0.577148 0.864746)"/>
</clipPath>
</defs>
</svg>
