<svg width="21" height="21" viewBox="0 0 21 21" fill="none" xmlns="http://www.w3.org/2000/svg">
<g clip-path="url(#clip0_240_348)">
<circle cx="10.125" cy="10.7041" r="9" stroke="#E7E7E7" stroke-width="2"/>
<mask id="path-2-inside-1_240_348" fill="white">
<path d="M10.125 1.70027C10.125 1.1501 10.5721 0.698962 11.1195 0.753678C12.2637 0.86804 13.3822 1.17917 14.4249 1.67575C15.768 2.31545 16.9516 3.24679 17.8891 4.40188C18.8267 5.55697 19.4948 6.90671 19.8446 8.35272C20.1162 9.47521 20.1907 10.6338 20.0673 11.777C20.0082 12.324 19.4748 12.6688 18.9364 12.5557C18.398 12.4425 18.0598 11.914 18.1053 11.3657C18.1759 10.5146 18.11 9.65545 17.9081 8.82119C17.628 7.66327 17.0931 6.58245 16.3423 5.65749C15.5915 4.73253 14.6438 3.98675 13.5682 3.4745C12.7933 3.10543 11.9661 2.86429 11.1186 2.75831C10.5727 2.69005 10.125 2.25043 10.125 1.70027Z"/>
</mask>
<path d="M10.125 1.70027C10.125 1.1501 10.5721 0.698962 11.1195 0.753678C12.2637 0.86804 13.3822 1.17917 14.4249 1.67575C15.768 2.31545 16.9516 3.24679 17.8891 4.40188C18.8267 5.55697 19.4948 6.90671 19.8446 8.35272C20.1162 9.47521 20.1907 10.6338 20.0673 11.777C20.0082 12.324 19.4748 12.6688 18.9364 12.5557C18.398 12.4425 18.0598 11.914 18.1053 11.3657C18.1759 10.5146 18.11 9.65545 17.9081 8.82119C17.628 7.66327 17.0931 6.58245 16.3423 5.65749C15.5915 4.73253 14.6438 3.98675 13.5682 3.4745C12.7933 3.10543 11.9661 2.86429 11.1186 2.75831C10.5727 2.69005 10.125 2.25043 10.125 1.70027Z" stroke="black" stroke-width="2" mask="url(#path-2-inside-1_240_348)"/>
</g>
<defs>
<clipPath id="clip0_240_348">
<rect width="20" height="20" fill="white" transform="translate(0.125 0.704102)"/>
</clipPath>
</defs>
</svg>
