<svg width="17" height="16" viewBox="0 0 17 16" fill="none" xmlns="http://www.w3.org/2000/svg">
<path d="M10.6261 11.3062C10.8812 11.3062 11.1258 11.4075 11.3061 11.5878C11.4864 11.7682 11.5877 12.0127 11.5877 12.2678C11.5877 12.5228 11.4864 12.7674 11.3061 12.9477C11.1258 13.1281 10.8812 13.2294 10.6261 13.2294C10.3711 13.2294 10.1265 13.1281 9.94619 12.9477C9.76586 12.7674 9.66455 12.5228 9.66455 12.2678C9.66455 12.0127 9.76586 11.7682 9.94619 11.5878C10.1265 11.4075 10.3711 11.3062 10.6261 11.3062ZM10.6261 6.81874C10.8812 6.81874 11.1258 6.92005 11.3061 7.10038C11.4864 7.28072 11.5877 7.5253 11.5877 7.78033C11.5877 8.03536 11.4864 8.27995 11.3061 8.46028C11.1258 8.64062 10.8812 8.74193 10.6261 8.74193C10.3711 8.74193 10.1265 8.64062 9.94619 8.46028C9.76586 8.27995 9.66455 8.03536 9.66455 7.78033C9.66455 7.5253 9.76586 7.28072 9.94619 7.10038C10.1265 6.92005 10.3711 6.81874 10.6261 6.81874ZM10.6261 2.3313C10.8812 2.3313 11.1258 2.43261 11.3061 2.61294C11.4864 2.79328 11.5877 3.03786 11.5877 3.29289C11.5877 3.54792 11.4864 3.79251 11.3061 3.97284C11.1258 4.15318 10.8812 4.25449 10.6261 4.25449C10.3711 4.25449 10.1265 4.15318 9.94619 3.97284C9.76586 3.79251 9.66455 3.54792 9.66455 3.29289C9.66455 3.03786 9.76586 2.79328 9.94619 2.61294C10.1265 2.43261 10.3711 2.3313 10.6261 2.3313Z" fill="#667085"/>
</svg>
