<svg width="12" height="12" viewBox="0 0 12 12" fill="none" xmlns="http://www.w3.org/2000/svg">
<path d="M2.45898 7.9722C2.4897 7.8504 2.66664 7.8504 2.69736 7.9722L2.97383 9.0672C3.02913 9.288 3.20422 9.459 3.4297 9.513L4.55033 9.783C4.67505 9.813 4.67505 9.987 4.55033 10.017L3.4297 10.287C3.31916 10.3133 3.21818 10.3689 3.13778 10.4475C3.05738 10.5261 3.00066 10.6248 2.97383 10.7328L2.69736 11.8278C2.66664 11.9496 2.4897 11.9496 2.45898 11.8278L2.18251 10.7328C2.15568 10.6248 2.09896 10.5261 2.01856 10.4475C1.93816 10.3689 1.83718 10.3133 1.72665 10.287L0.602328 10.017C0.477609 9.987 0.477609 9.813 0.602328 9.783L1.72665 9.513C1.83718 9.48666 1.93816 9.4311 2.01856 9.3525C2.09896 9.2739 2.15568 9.1752 2.18251 9.0672L2.45898 7.9722ZM6.76149 0.172199C6.79221 0.0509988 6.96915 0.0509988 6.99987 0.172199L7.5737 2.4426C7.6207 2.63149 7.71993 2.80414 7.86056 2.94169C8.00119 3.07925 8.17782 3.17642 8.37117 3.2226L10.6941 3.7836C10.8189 3.8136 10.8189 3.9864 10.6941 4.0164L8.37178 4.5774C8.17819 4.62338 8.00131 4.72047 7.86043 4.85804C7.71956 4.99561 7.62015 5.16836 7.57309 5.3574L6.99987 7.6278C6.96915 7.7496 6.79221 7.7496 6.76149 7.6278L6.18828 5.3574C6.14122 5.16844 6.0419 4.99574 5.90115 4.85818C5.7604 4.72061 5.58364 4.62348 5.39019 4.5774L3.05985 4.0164C2.93513 3.9864 2.93513 3.8136 3.05985 3.7836L5.39019 3.2226C5.58364 3.17651 5.7604 3.07939 5.90115 2.94182C6.0419 2.80426 6.14122 2.63156 6.18828 2.4426L6.76149 0.172199Z" fill="url(#paint0_linear_109_410)"/>
<defs>
<linearGradient id="paint0_linear_109_410" x1="0.508791" y1="0.081302" x2="12.2296" y2="10.2585" gradientUnits="userSpaceOnUse">
<stop stop-color="#FF805F"/>
<stop offset="0.5" stop-color="#B74BDD"/>
<stop offset="1" stop-color="#0379FF"/>
</linearGradient>
</defs>
</svg>
