<svg width="22" height="22" viewBox="0 0 22 22" fill="none" xmlns="http://www.w3.org/2000/svg">
<path d="M10.7733 11.438V3.56299M6.40325 12.313H4.65525C4.42345 12.313 4.20115 12.4052 4.03724 12.5693C3.87333 12.7334 3.78125 12.9559 3.78125 13.188V16.688C3.78125 16.9201 3.87333 17.1426 4.03724 17.3067C4.20115 17.4708 4.42345 17.563 4.65525 17.563H16.8913C17.1231 17.563 17.3454 17.4708 17.5093 17.3067C17.6732 17.1426 17.7653 16.9201 17.7653 16.688V13.188C17.7653 12.9559 17.6732 12.7334 17.5093 12.5693C17.3454 12.4052 17.1231 12.313 16.8913 12.313H15.1433M14.2693 7.93799L10.7733 12.313L7.27725 7.93799M15.1433 14.938H15.152" stroke="#8043F9" stroke-width="2" stroke-linecap="round" stroke-linejoin="round"/>
</svg>
