<svg width="24" height="24" viewBox="0 0 24 24" fill="none" xmlns="http://www.w3.org/2000/svg">
<path fill-rule="evenodd" clip-rule="evenodd" d="M21.7001 8.03718C21.6065 7.32656 21.3351 6.65105 20.9111 6.07318C20.3856 5.54383 19.6729 5.24246 18.9271 5.23418C16.1601 5.03418 12.0011 5.03418 12.0011 5.03418C12.0011 5.03418 7.8441 5.03418 5.0731 5.23418C4.32751 5.24229 3.6151 5.5437 3.0901 6.07318C2.66421 6.65049 2.39233 7.32673 2.3001 8.03818C2.1765 9.10253 2.10974 10.1727 2.1001 11.2442V12.7442C2.10969 13.8156 2.17645 14.8858 2.3001 15.9502C2.3941 16.6622 2.6641 17.3402 3.0841 17.9222C3.6881 18.4582 4.4641 18.7592 5.2711 18.7702C6.8541 18.9212 12.0021 18.9702 12.0021 18.9702C12.0021 18.9702 16.1631 18.9702 18.9301 18.7702C19.6763 18.7615 20.3893 18.4598 20.9151 17.9302C21.3382 17.3516 21.6088 16.6759 21.7021 15.9652C21.8257 14.9008 21.8925 13.8306 21.9021 12.7592V11.2432C21.8908 10.1717 21.8234 9.10158 21.7001 8.03718ZM10.0081 14.5912V8.97118L15.4081 11.7902L10.0081 14.5912Z" fill="white"/>
</svg>
