<svg width="24" height="24" viewBox="0 0 24 24" fill="none" xmlns="http://www.w3.org/2000/svg">
<path fill-rule="evenodd" clip-rule="evenodd" d="M12.5101 8.796V10.493C12.8653 9.95154 13.3552 9.51165 13.9315 9.21644C14.5079 8.92123 15.1511 8.78083 15.7981 8.809C19.2531 8.809 20.0001 10.969 20.0001 13.779V19.5H16.8001V14.428C16.8001 13.218 16.5561 11.662 14.6721 11.662C12.8451 11.662 12.5331 12.979 12.5331 14.338V19.5H9.34312V8.796H12.5101ZM7.20011 6.106C7.19972 6.423 7.10575 6.73284 6.92999 6.99665C6.75424 7.26047 6.50451 7.46653 6.21211 7.589C5.91984 7.71048 5.59804 7.74226 5.28765 7.68029C4.97726 7.61832 4.69233 7.4654 4.46911 7.241C4.24548 7.01646 4.09323 6.73081 4.03151 6.41997C3.96978 6.10913 4.00135 5.78698 4.12223 5.49403C4.2431 5.20108 4.4479 4.95041 4.71086 4.77354C4.97382 4.59667 5.28321 4.5015 5.60011 4.5C5.8107 4.50013 6.01919 4.5418 6.21364 4.62263C6.40809 4.70346 6.58469 4.82186 6.73332 4.97104C6.88194 5.12023 6.99968 5.29726 7.07978 5.49202C7.15988 5.68677 7.20077 5.89542 7.20011 6.106Z" fill="white"/>
<path d="M7.2 8.80908H4V19.5001H7.2V8.80908Z" fill="white"/>
</svg>
