<svg width="22" height="22" viewBox="0 0 22 22" fill="none" xmlns="http://www.w3.org/2000/svg">
<path d="M7.42056 9.59874L13.6032 6.82411M7.42056 11.5404L13.6032 14.3167M7.48524 10.563C7.48524 11.1431 7.25504 11.6995 6.84527 12.1098C6.4355 12.52 5.87974 12.7505 5.30024 12.7505C4.72074 12.7505 4.16497 12.52 3.75521 12.1098C3.34544 11.6995 3.11523 11.1431 3.11523 10.563C3.11523 9.98283 3.34544 9.42643 3.75521 9.01619C4.16497 8.60596 4.72074 8.37549 5.30024 8.37549C5.87974 8.37549 6.4355 8.60596 6.84527 9.01619C7.25504 9.42643 7.48524 9.98283 7.48524 10.563ZM17.9733 15.3755C17.9733 15.9556 17.743 16.512 17.3333 16.9223C16.9235 17.3325 16.3677 17.563 15.7883 17.563C15.2088 17.563 14.653 17.3325 14.2432 16.9223C13.8335 16.512 13.6032 15.9556 13.6032 15.3755C13.6032 14.7953 13.8335 14.2389 14.2432 13.8287C14.653 13.4185 15.2088 13.188 15.7883 13.188C16.3677 13.188 16.9235 13.4185 17.3333 13.8287C17.743 14.2389 17.9733 14.7953 17.9733 15.3755ZM17.9733 5.75049C17.9733 6.33065 17.743 6.88705 17.3333 7.29728C16.9235 7.70752 16.3677 7.93799 15.7883 7.93799C15.2088 7.93799 14.653 7.70752 14.2432 7.29728C13.8335 6.88705 13.6032 6.33065 13.6032 5.75049C13.6032 5.17033 13.8335 4.61393 14.2432 4.20369C14.653 3.79346 15.2088 3.56299 15.7883 3.56299C16.3677 3.56299 16.9235 3.79346 17.3333 4.20369C17.743 4.61393 17.9733 5.17033 17.9733 5.75049Z" stroke="#8043F9" stroke-width="2" stroke-linecap="round"/>
</svg>
