<svg width="22" height="22" viewBox="0 0 22 22" fill="none" xmlns="http://www.w3.org/2000/svg">
<path d="M20.8667 7.29738L15.0409 6.44803L12.4371 1.16854C11.9705 0.227481 10.6188 0.215518 10.1482 1.16854L7.54436 6.44803L1.71858 7.29738C0.673846 7.4489 0.255155 8.73688 1.01279 9.47457L5.22761 13.5817L4.23072 19.3836C4.05129 20.4323 5.15583 21.2178 6.08094 20.7274L11.2926 17.9879L16.5043 20.7274C17.4295 21.2139 18.534 20.4323 18.3546 19.3836L17.3577 13.5817L21.5725 9.47457C22.3301 8.73688 21.9114 7.4489 20.8667 7.29738ZM15.3041 12.9118L16.2491 18.4306L11.2926 15.8267L6.33614 18.4306L7.28119 12.9118L3.26973 9.00404L8.8124 8.19856L11.2926 3.17427L13.7729 8.19856L19.3156 9.00404L15.3041 12.9118Z" fill="#EAAA08"/>
</svg>
