<svg width="1350" height="30" viewBox="0 0 1350 30" fill="none" xmlns="http://www.w3.org/2000/svg">
<path d="M14.0625 11.25L10.3125 15M10.3125 15L14.0625 18.75M10.3125 15L19.6875 15M15 3.75C16.4774 3.75 17.9403 4.04099 19.3052 4.60635C20.6701 5.17172 21.9103 6.00039 22.9549 7.04505C23.9996 8.08971 24.8283 9.3299 25.3936 10.6948C25.959 12.0597 26.25 13.5226 26.25 15C26.25 16.4774 25.959 17.9403 25.3936 19.3052C24.8283 20.6701 23.9996 21.9103 22.955 22.955C21.9103 23.9996 20.6701 24.8283 19.3052 25.3936C17.9403 25.959 16.4774 26.25 15 26.25C12.0163 26.25 9.15483 25.0647 7.04505 22.955C4.93526 20.8452 3.75 17.9837 3.75 15C3.75 12.0163 4.93526 9.15483 7.04505 7.04505C9.15483 4.93527 12.0163 3.75 15 3.75Z" stroke="black" stroke-width="1.5" stroke-linecap="round" stroke-linejoin="round"/>
<path d="M1335.94 18.75L1339.69 15M1339.69 15L1335.94 11.25M1339.69 15L1330.31 15M1335 26.25C1333.52 26.25 1332.06 25.959 1330.69 25.3936C1329.33 24.8283 1328.09 23.9996 1327.05 22.9549C1326 21.9103 1325.17 20.6701 1324.61 19.3052C1324.04 17.9403 1323.75 16.4774 1323.75 15C1323.75 13.5226 1324.04 12.0597 1324.61 10.6948C1325.17 9.3299 1326 8.08971 1327.05 7.04505C1328.09 6.00039 1329.33 5.17172 1330.69 4.60635C1332.06 4.04099 1333.52 3.75 1335 3.75C1337.98 3.75 1340.85 4.93526 1342.95 7.04505C1345.06 9.15483 1346.25 12.0163 1346.25 15C1346.25 17.9837 1345.06 20.8452 1342.95 22.955C1340.85 25.0647 1337.98 26.25 1335 26.25Z" stroke="black" stroke-width="1.5" stroke-linecap="round" stroke-linejoin="round"/>
</svg>
