<svg width="62" height="12" viewBox="0 0 62 12" fill="none" xmlns="http://www.w3.org/2000/svg">
<path d="M10.4529 0H12.4902L8.04185 5.08246L13.2748 12H9.17723L5.96769 7.80554L2.29846 12H0.258462L5.016 6.56308L0 0H4.2L7.09846 3.83354L10.4529 0ZM9.73754 10.7825H10.8655L3.58523 1.15385H2.37323L9.73754 10.7825Z" fill="#666D80"/>
<path d="M37.3531 1.01352C37.3487 1.00497 37.3413 0.998322 37.3324 0.994817C36.3113 0.526213 35.2337 0.192047 34.1266 0.000683684C34.1165 -0.0010055 34.1062 0.000453509 34.0971 0.00485993C34.0879 0.00926635 34.0803 0.0164038 34.0754 0.0252909C33.9277 0.291049 33.7948 0.565667 33.6757 0.845205C32.4824 0.664044 31.2686 0.664044 30.0752 0.845205C29.9552 0.564646 29.8198 0.290925 29.6697 0.0252909C29.6645 0.0166821 29.6568 0.0098283 29.6477 0.00561663C29.6386 0.00140496 29.6284 2.94332e-05 29.6185 0.00166802C28.5112 0.19262 27.4334 0.526295 26.4127 0.995802C26.4042 0.999501 26.397 1.00567 26.392 1.01352C24.3506 4.06088 23.7905 7.03639 24.0651 9.97352C24.0666 9.98779 24.0737 10.0009 24.0848 10.0099C25.2738 10.8907 26.6038 11.563 28.018 11.9982C28.0281 12.001 28.0388 12.0005 28.0487 11.997C28.0585 11.9935 28.0671 11.987 28.0732 11.9785C28.3773 11.5651 28.646 11.1281 28.8783 10.6714C28.8815 10.6651 28.8833 10.6582 28.8837 10.6512C28.884 10.6442 28.8828 10.6372 28.8802 10.6307C28.8776 10.6241 28.8736 10.6182 28.8685 10.6134C28.8635 10.6085 28.8574 10.6048 28.8508 10.6025C28.4264 10.44 28.0157 10.2442 27.6224 10.0168C27.6154 10.0125 27.6095 10.0066 27.6053 9.99951C27.6011 9.99245 27.5986 9.98448 27.5981 9.97628C27.5977 9.96807 27.5992 9.95986 27.6025 9.95236C27.6059 9.94486 27.611 9.93827 27.6174 9.93316C27.7001 9.87115 27.7828 9.80619 27.8615 9.74123C27.8685 9.73563 27.8768 9.73204 27.8857 9.73082C27.8945 9.72961 27.9035 9.73082 27.9117 9.73433C30.4896 10.9106 33.2801 10.9106 35.8264 9.73433C35.8349 9.73043 35.8443 9.729 35.8535 9.73022C35.8627 9.73144 35.8714 9.73526 35.8786 9.74123C35.9573 9.80619 36.04 9.87115 36.1227 9.93218C36.1294 9.93707 36.1348 9.94355 36.1384 9.95104C36.1419 9.95852 36.1436 9.96678 36.1432 9.97507C36.1428 9.98336 36.1404 9.99142 36.1361 9.99854C36.1319 10.0057 36.1259 10.0116 36.1188 10.0158C35.7259 10.2454 35.3143 10.4413 34.8884 10.6015C34.8819 10.6041 34.8761 10.6079 34.8712 10.6128C34.8663 10.6177 34.8624 10.6236 34.8598 10.63C34.8574 10.6368 34.8564 10.6439 34.857 10.651C34.8575 10.6581 34.8595 10.6651 34.8628 10.6714C35.099 11.1261 35.3668 11.5631 35.666 11.9785C35.672 11.9873 35.6808 11.9939 35.6909 11.9972C35.701 12.0006 35.712 12.0006 35.7221 11.9972C37.1383 11.5637 38.4701 10.8916 39.6602 10.0099C39.666 10.0056 39.6708 10.0002 39.6744 9.99389C39.6779 9.98762 39.6802 9.98069 39.6809 9.97352C40.0097 6.57771 39.1307 3.62878 37.3531 1.01352ZM29.2622 8.18506C28.4866 8.18506 27.8478 7.47243 27.8478 6.59838C27.8478 5.72335 28.4748 5.01171 29.2632 5.01171C30.0575 5.01171 30.6904 5.73024 30.6786 6.59838C30.6786 7.47243 30.0506 8.18506 29.2622 8.18506ZM34.4957 8.18506C33.72 8.18506 33.0802 7.47243 33.0802 6.59838C33.0802 5.72335 33.7072 5.01171 34.4957 5.01171C35.29 5.01171 35.9229 5.73024 35.9111 6.59838C35.9111 7.47243 35.291 8.18506 34.4957 8.18506Z" fill="#666D80"/>
<path fill-rule="evenodd" clip-rule="evenodd" d="M60.5339 0C61.3431 0 62 0.656953 62 1.46611V10.5339C62 11.343 61.343 12 60.5339 12H51.4661C50.657 12 50 11.343 50 10.5339V1.46611C50 0.656953 50.6569 0 51.4661 0H60.5339ZM53.7608 9.92058V4.63034H52.0021V9.92058H53.7608ZM60.1016 9.92058V6.88685C60.1016 5.26186 59.234 4.50593 58.077 4.50593C57.1441 4.50593 56.7262 5.019 56.4922 5.37935V4.63034H54.7339C54.7572 5.12677 54.7339 9.92058 54.7339 9.92058H56.4922V6.96614C56.4922 6.80798 56.5036 6.64992 56.5502 6.53688C56.6771 6.22106 56.9666 5.8939 57.4524 5.8939C58.0884 5.8939 58.3432 6.37922 58.3432 7.09008V9.92058H60.1016ZM52.8933 2.07942C52.2916 2.07942 51.8984 2.47502 51.8984 2.99353C51.8984 3.50114 52.2796 3.90764 52.87 3.90764H52.8814C53.4946 3.90764 53.8764 3.50114 53.8764 2.99353C53.865 2.47575 53.4957 2.08055 52.8933 2.07942Z" fill="#666D80"/>
</svg>
