<svg width="50" height="50" viewBox="0 0 50 50" fill="none" xmlns="http://www.w3.org/2000/svg">
<path d="M37.225 0H12.775C9.38808 0.00396983 6.14101 1.35118 3.7461 3.7461C1.35118 6.14101 0.00396983 9.38808 0 12.775L0 37.225C0.00396983 40.6119 1.35118 43.859 3.7461 46.2539C6.14101 48.6488 9.38808 49.996 12.775 50H37.225C40.6119 49.996 43.859 48.6488 46.2539 46.2539C48.6488 43.859 49.996 40.6119 50 37.225V12.775C49.996 9.38808 48.6488 6.14101 46.2539 3.7461C43.859 1.35118 40.6119 0.00396983 37.225 0ZM46.35 22.21C44.1027 23.1702 41.6475 23.541 39.2169 23.2873C36.7862 23.0335 34.4605 22.1637 32.46 20.76L27.875 23C27.7393 23.0718 27.5844 23.099 27.4324 23.0776C27.2803 23.0563 27.1389 22.9876 27.0281 22.8813C26.9174 22.775 26.843 22.6365 26.8155 22.4854C26.788 22.3344 26.8088 22.1785 26.875 22.04L29.025 17.395C27.6074 15.4321 26.7094 13.1425 26.4148 10.7392C26.1202 8.33592 26.4385 5.89717 27.34 3.65H37.225C39.6443 3.65265 41.9637 4.61488 43.6744 6.32557C45.3851 8.03627 46.3474 10.3557 46.35 12.775V22.21Z" fill="#8043F9"/>
<path d="M13.96 38.6201C12.02 38.1801 11.75 37.9101 11.31 35.9701C11.2916 35.8885 11.2459 35.8158 11.1804 35.7639C11.1149 35.712 11.0335 35.6842 10.95 35.6851C10.867 35.6844 10.7864 35.7124 10.7217 35.7643C10.657 35.8163 10.6122 35.8889 10.595 35.9701C10.155 37.9101 9.88495 38.1801 7.94495 38.6201C7.86266 38.637 7.78872 38.6818 7.73564 38.747C7.68255 38.8121 7.65356 38.8936 7.65356 38.9776C7.65356 39.0616 7.68255 39.1431 7.73564 39.2082C7.78872 39.2733 7.86266 39.3181 7.94495 39.3351C9.88495 39.7751 10.155 40.0451 10.595 41.9851C10.6122 42.0662 10.657 42.1389 10.7217 42.1908C10.7864 42.2427 10.867 42.2707 10.95 42.2701C11.0335 42.271 11.1149 42.2431 11.1804 42.1913C11.2459 42.1394 11.2916 42.0666 11.31 41.9851C11.75 40.0451 12.02 39.7751 13.96 39.3351C14.0422 39.3181 14.1162 39.2733 14.1693 39.2082C14.2224 39.1431 14.2513 39.0616 14.2513 38.9776C14.2513 38.8936 14.2224 38.8121 14.1693 38.747C14.1162 38.6818 14.0422 38.637 13.96 38.6201Z" fill="white"/>
<path d="M23.5 30.9448C20.625 30.2948 20.22 29.8898 19.57 27.0148C19.5476 26.8902 19.4827 26.7773 19.3862 26.6954C19.2897 26.6135 19.1677 26.5677 19.0411 26.566C18.9146 26.5642 18.7914 26.6065 18.6926 26.6857C18.5939 26.7648 18.5258 26.8759 18.5 26.9998C17.85 29.8748 17.45 30.2798 14.575 30.9298C14.4443 30.954 14.3273 31.0256 14.2461 31.1307C14.1649 31.2359 14.1253 31.3673 14.135 31.4998C14.1427 31.6177 14.1882 31.73 14.2647 31.8201C14.3413 31.9102 14.4448 31.9732 14.56 31.9998C17.435 32.6448 17.835 33.0498 18.485 35.9248C18.5135 36.0439 18.5813 36.1499 18.6775 36.2257C18.7736 36.3015 18.8925 36.3428 19.015 36.3428C19.1374 36.3428 19.2563 36.3015 19.3525 36.2257C19.4486 36.1499 19.5164 36.0439 19.545 35.9248C20.195 33.0548 20.6 32.6498 23.5 31.9998C23.6096 31.9677 23.7065 31.9024 23.7772 31.8128C23.848 31.7232 23.8892 31.6138 23.895 31.4998C23.9029 31.376 23.868 31.2532 23.796 31.1521C23.7241 31.0511 23.6195 30.9778 23.5 30.9448Z" fill="white"/>
</svg>
