<svg width="27" height="28" viewBox="0 0 27 28" fill="none" xmlns="http://www.w3.org/2000/svg">
<path d="M19.6681 0.789551H6.83187C5.05374 0.791635 3.34903 1.49892 2.0917 2.75625C0.834369 4.01358 0.127084 5.71829 0.125 7.49643L0.125 20.3327C0.127084 22.1108 0.834369 23.8155 2.0917 25.0729C3.34903 26.3302 5.05374 27.0375 6.83187 27.0395H19.6681C21.4463 27.0375 23.151 26.3302 24.4083 25.0729C25.6656 23.8155 26.3729 22.1108 26.375 20.3327V7.49643C26.3729 5.71829 25.6656 4.01358 24.4083 2.75625C23.151 1.49892 21.4463 0.791635 19.6681 0.789551ZM24.4587 12.4498C23.2789 12.9539 21.9899 13.1486 20.7139 13.0154C19.4378 12.8821 18.2168 12.4255 17.1665 11.6885L14.7594 12.8646C14.6881 12.9022 14.6068 12.9165 14.527 12.9053C14.4472 12.8941 14.3729 12.8581 14.3148 12.8022C14.2566 12.7464 14.2176 12.6737 14.2031 12.5944C14.1887 12.5151 14.1996 12.4333 14.2344 12.3606L15.3631 9.92193C14.6189 8.89142 14.1474 7.68935 13.9928 6.42763C13.8381 5.16591 14.0052 3.88557 14.4785 2.7058H19.6681C20.9382 2.70719 22.156 3.21236 23.0541 4.11048C23.9522 5.00859 24.4574 6.2263 24.4587 7.49643V12.4498Z" fill="#8043F9"/>
<path d="M7.45343 21.0651C6.43493 20.8341 6.29318 20.6923 6.06218 19.6738C6.05257 19.631 6.02856 19.5928 5.99416 19.5656C5.95976 19.5383 5.91705 19.5237 5.87318 19.5242C5.82963 19.5238 5.7873 19.5385 5.75334 19.5658C5.71938 19.5931 5.69588 19.6312 5.68681 19.6738C5.45581 20.6923 5.31406 20.8341 4.29556 21.0651C4.25235 21.074 4.21354 21.0975 4.18567 21.1317C4.1578 21.1659 4.14258 21.2086 4.14258 21.2527C4.14258 21.2969 4.1578 21.3396 4.18567 21.3738C4.21354 21.408 4.25235 21.4315 4.29556 21.4404C5.31406 21.6714 5.45581 21.8132 5.68681 22.8317C5.69588 22.8743 5.71938 22.9124 5.75334 22.9397C5.7873 22.967 5.82963 22.9817 5.87318 22.9813C5.91705 22.9818 5.95976 22.9672 5.99416 22.9399C6.02856 22.9127 6.05257 22.8745 6.06218 22.8317C6.29318 21.8132 6.43493 21.6714 7.45343 21.4404C7.49664 21.4315 7.53545 21.408 7.56332 21.3738C7.59119 21.3396 7.60641 21.2969 7.60641 21.2527C7.60641 21.2086 7.59119 21.1659 7.56332 21.1317C7.53545 21.0975 7.49664 21.074 7.45343 21.0651Z" fill="white"/>
<path d="M12.4623 17.0357C10.9529 16.6945 10.7403 16.4818 10.399 14.9725C10.3873 14.9071 10.3532 14.8478 10.3025 14.8048C10.2519 14.7618 10.1878 14.7378 10.1214 14.7368C10.055 14.7359 9.99029 14.7581 9.93845 14.7997C9.8866 14.8412 9.85084 14.8995 9.83729 14.9646C9.49604 16.474 9.28604 16.6866 7.77667 17.0278C7.70809 17.0406 7.64662 17.0781 7.60401 17.1333C7.56139 17.1886 7.54062 17.2575 7.54567 17.3271C7.54971 17.389 7.5736 17.448 7.61379 17.4953C7.65398 17.5425 7.70833 17.5756 7.76879 17.5896C9.27817 17.9282 9.48817 18.1408 9.82942 19.6502C9.8444 19.7127 9.88 19.7684 9.93048 19.8082C9.98096 19.848 10.0434 19.8697 10.1077 19.8697C10.172 19.8697 10.2344 19.848 10.2849 19.8082C10.3353 19.7684 10.3709 19.7127 10.3859 19.6502C10.7272 18.1435 10.9398 17.9308 12.4623 17.5896C12.5198 17.5728 12.5707 17.5385 12.6079 17.4914C12.645 17.4444 12.6666 17.387 12.6697 17.3271C12.6738 17.2621 12.6555 17.1976 12.6177 17.1446C12.58 17.0915 12.5251 17.0531 12.4623 17.0357Z" fill="white"/>
</svg>
