<svg width="25" height="25" viewBox="0 0 25 25" fill="none" xmlns="http://www.w3.org/2000/svg">
<path d="M7.75 9.875H3.25C3.05109 9.875 2.86032 9.95402 2.71967 10.0947C2.57902 10.2353 2.5 10.4261 2.5 10.625V18.875C2.5 19.0739 2.57902 19.2647 2.71967 19.4053C2.86032 19.546 3.05109 19.625 3.25 19.625H7.75M7.75 9.875V19.625M7.75 9.875L11.5 2.375C11.894 2.375 12.2841 2.4526 12.6481 2.60336C13.012 2.75413 13.3427 2.9751 13.6213 3.25368C13.8999 3.53226 14.1209 3.86297 14.2716 4.22695C14.4224 4.59093 14.5 4.98103 14.5 5.375V7.625H20.3008C20.5135 7.625 20.7238 7.67023 20.9177 7.75769C21.1115 7.84516 21.2846 7.97285 21.4253 8.1323C21.5661 8.29175 21.6713 8.47931 21.7341 8.68253C21.7968 8.88576 21.8156 9.1 21.7892 9.31105L20.6642 18.3111C20.6189 18.6738 20.4426 19.0076 20.1685 19.2495C19.8944 19.4915 19.5414 19.625 19.1758 19.625H7.75" stroke="#5E718D" stroke-width="1.5" stroke-linecap="round" stroke-linejoin="round"/>
</svg>
