<svg width="25" height="25" viewBox="0 0 25 25" fill="none" xmlns="http://www.w3.org/2000/svg">
<path d="M7.75 14.375L11.5 21.875C11.894 21.875 12.2841 21.7974 12.6481 21.6466C13.012 21.4959 13.3427 21.2749 13.6213 20.9963C13.8999 20.7177 14.1209 20.387 14.2716 20.0231C14.4224 19.6591 14.5 19.269 14.5 18.875V16.625H20.3008C20.5135 16.625 20.7238 16.5798 20.9177 16.4923C21.1115 16.4048 21.2846 16.2772 21.4253 16.1177C21.5661 15.9583 21.6713 15.7707 21.7341 15.5675C21.7968 15.3642 21.8156 15.15 21.7892 14.9389L20.6642 5.93895C20.6189 5.57617 20.4426 5.24244 20.1685 5.00048C19.8944 4.75853 19.5414 4.625 19.1758 4.625H7.75M7.75 14.375V4.625M7.75 14.375H3.25C3.05109 14.375 2.86032 14.296 2.71967 14.1553C2.57902 14.0147 2.5 13.8239 2.5 13.625V5.375C2.5 5.17609 2.57902 4.98532 2.71967 4.84467C2.86032 4.70402 3.05109 4.625 3.25 4.625H7.75" stroke="#5E718D" stroke-width="1.5" stroke-linecap="round" stroke-linejoin="round"/>
</svg>
