<svg width="21" height="21" viewBox="0 0 21 21" fill="none" xmlns="http://www.w3.org/2000/svg">
<path d="M4.41406 10.0184C4.63559 11.5405 5.39771 12.9319 6.56102 13.9382C7.72432 14.9444 9.21103 15.4982 10.7491 15.4982M10.7491 15.4982C12.2873 15.4982 13.774 14.9444 14.9373 13.9382C16.1006 12.9319 16.8627 11.5405 17.0842 10.0184M10.7491 15.4982V18.7041M10.7501 2.7041C10.0226 2.7041 9.32495 2.99308 8.81057 3.50747C8.29618 4.02185 8.00721 4.71951 8.00721 5.44696V9.1041C8.00721 9.83155 8.29618 10.5292 8.81057 11.0436C9.32495 11.558 10.0226 11.847 10.7501 11.847C11.4775 11.847 12.1752 11.558 12.6896 11.0436C13.2039 10.5292 13.4929 9.83155 13.4929 9.1041V5.44696C13.4929 4.71951 13.2039 4.02185 12.6896 3.50747C12.1752 2.99308 11.4775 2.7041 10.7501 2.7041Z" stroke="#919191" stroke-width="1.5" stroke-linecap="round" stroke-linejoin="round"/>
</svg>
