<svg width="25" height="25" viewBox="0 0 25 25" fill="none" xmlns="http://www.w3.org/2000/svg">
<path d="M15.8862 2.49268C15.621 2.49268 15.3483 2.63118 15.1568 2.81448C13.6082 4.29728 13.134 5.53728 13.7002 7.23588C12.3791 8.24848 11.5447 8.49698 9.8955 8.49698C7.641 8.49698 6.169 8.76878 5.1674 9.76968V9.80088C4.2302 10.7377 4.2302 12.2377 5.1674 13.1737L7.9676 15.9957L3.1965 20.7647C2.806 21.1547 2.7769 21.8097 3.1674 22.1997C3.558 22.5907 4.2144 22.5907 4.605 22.1997L9.3938 17.4097L12.1987 20.2007C13.136 21.1377 14.6364 21.1377 15.5737 20.2007H15.605C16.607 19.1997 16.8862 17.9167 16.8862 15.4847C16.8862 13.9387 17.2035 12.8477 18.1642 11.6997C20.0131 12.2417 21.0888 11.7227 22.605 10.207C22.7925 10.0195 22.8862 9.75368 22.8862 9.48858C22.8862 9.13688 22.7974 8.59778 22.5737 7.92698C22.2134 6.84688 21.5931 5.76018 20.605 4.77258C19.6168 3.78508 18.5294 3.16508 17.4487 2.80498C16.7775 2.58138 16.2381 2.49268 15.8862 2.49268ZM16.2735 4.54728C17.3359 4.74448 18.4056 5.44778 19.1674 6.20928C19.9293 6.97068 20.5782 7.90327 20.8467 9.12558C19.8922 10.0412 19.3084 10.1136 18.3538 9.61108C17.973 9.41058 17.4905 9.48148 17.1862 9.78568C15.3652 11.6057 14.8862 13.2567 14.8862 15.4847C14.8862 17.4247 14.7721 18.1457 14.1674 18.7957C13.9967 18.9797 13.7612 18.9517 13.605 18.7957L6.5737 11.7687C6.4175 11.6127 6.4223 11.4127 6.5482 11.2597C6.9054 10.8247 7.7004 10.4868 9.8862 10.488C12.4992 10.4895 13.8883 9.81658 15.605 8.20808C15.9093 7.90388 15.9849 7.43728 15.7924 7.05248C15.2782 6.02458 15.3584 5.48278 16.2735 4.54728Z" fill="#888888"/>
</svg>
