<svg width="1015" height="450" viewBox="0 0 1015 450" fill="none" xmlns="http://www.w3.org/2000/svg">
<path d="M5 21C5 12.1635 12.1634 5 21 5H994C1002.84 5 1010 12.1634 1010 21V429C1010 437.837 1002.84 445 994 445H21C12.1634 445 5 437.837 5 429V21Z" fill="white" fill-opacity="0.5"/>
<path d="M21 2.5C10.7827 2.5 2.5 10.7827 2.5 21V429C2.5 439.217 10.7827 447.5 21 447.5H994C1004.22 447.5 1012.5 439.217 1012.5 429V21C1012.5 10.7827 1004.22 2.5 994 2.5H21Z" stroke="black" stroke-opacity="0.05" stroke-width="5"/>
</svg>
