<svg width="530" height="376" viewBox="0 0 530 376" fill="none" xmlns="http://www.w3.org/2000/svg">
<path d="M5 21C5 12.1634 12.1634 5 21 5H509C517.837 5 525 12.1634 525 21V355C525 363.837 517.837 371 509 371H21C12.1634 371 5 363.837 5 355V21Z" fill="white" fill-opacity="0.5"/>
<path d="M21 2.5C10.7827 2.5 2.5 10.7827 2.5 21V355C2.5 365.217 10.7827 373.5 21 373.5H509C519.217 373.5 527.5 365.217 527.5 355V21C527.5 10.7827 519.217 2.5 509 2.5H21Z" stroke="black" stroke-opacity="0.05" stroke-width="5"/>
</svg>
