<svg width="21" height="21" viewBox="0 0 21 21" fill="none" xmlns="http://www.w3.org/2000/svg">
<path fill-rule="evenodd" clip-rule="evenodd" d="M10.75 18.7041C12.8717 18.7041 14.9066 17.8612 16.4069 16.361C17.9071 14.8607 18.75 12.8258 18.75 10.7041C18.75 8.58237 17.9071 6.54754 16.4069 5.04725C14.9066 3.54696 12.8717 2.7041 10.75 2.7041C8.62827 2.7041 6.59344 3.54696 5.09315 5.04725C3.59285 6.54754 2.75 8.58237 2.75 10.7041C2.75 12.8258 3.59285 14.8607 5.09315 16.361C6.59344 17.8612 8.62827 18.7041 10.75 18.7041ZM8.75 7.7041C8.48478 7.7041 8.23043 7.80946 8.04289 7.99699C7.85536 8.18453 7.75 8.43889 7.75 8.7041V12.7041C7.75 12.9693 7.85536 13.2237 8.04289 13.4112C8.23043 13.5987 8.48478 13.7041 8.75 13.7041H12.75C13.0152 13.7041 13.2696 13.5987 13.4571 13.4112C13.6446 13.2237 13.75 12.9693 13.75 12.7041V8.7041C13.75 8.43889 13.6446 8.18453 13.4571 7.99699C13.2696 7.80946 13.0152 7.7041 12.75 7.7041H8.75Z" fill="black"/>
</svg>
