<svg width="30" height="30" viewBox="0 0 30 30" fill="none" xmlns="http://www.w3.org/2000/svg">
<path d="M26.2499 3.23816H3.74988C3.07159 3.23816 2.42108 3.50761 1.94146 3.98723C1.46183 4.46686 1.19238 5.11737 1.19238 5.79566V24.2044C1.19238 24.5403 1.25853 24.8728 1.38706 25.1831C1.51559 25.4934 1.70397 25.7753 1.94146 26.0128C2.17894 26.2503 2.46088 26.4387 2.77117 26.5672C3.08146 26.6958 3.41403 26.7619 3.74988 26.7619H26.2499C26.9282 26.7619 27.5787 26.4925 28.0583 26.0128C28.5379 25.5332 28.8074 24.8827 28.8074 24.2044V5.79378C28.8074 5.45802 28.7412 5.12554 28.6127 4.81536C28.4841 4.50517 28.2957 4.22336 28.0582 3.98602C27.8207 3.74869 27.5387 3.56048 27.2285 3.43216C26.9182 3.30384 26.5857 3.23791 26.2499 3.23816ZM4.26176 6.30566H8.35301V23.6925H4.26176V6.30566ZM25.738 23.6925H11.4205V6.30566H25.738V23.6925Z" fill="#666D80"/>
</svg>
