<svg width="21" height="20" viewBox="0 0 21 20" fill="none" xmlns="http://www.w3.org/2000/svg">
<g clip-path="url(#clip0_213_394)">
<path d="M13.7371 4.8471V4.20604C13.7371 3.30846 13.7371 2.85968 13.5624 2.51685C13.4088 2.21529 13.1636 1.97012 12.862 1.81646C12.5192 1.64178 12.0704 1.64178 11.1728 1.64178H9.89072C8.99315 1.64178 8.54436 1.64178 8.20153 1.81646C7.89997 1.97012 7.6548 2.21529 7.50115 2.51685C7.32647 2.85968 7.32647 3.30846 7.32647 4.20604V4.8471M8.92912 9.25441V13.261M12.1344 9.25441V13.261M3.31982 4.8471H17.7437M16.1411 4.8471V13.822C16.1411 15.1683 16.1411 15.8415 15.8791 16.3558C15.6486 16.8081 15.2808 17.1759 14.8285 17.4063C14.3142 17.6684 13.6411 17.6684 12.2947 17.6684H8.76886C7.4225 17.6684 6.74932 17.6684 6.23508 17.4063C5.78274 17.1759 5.41498 16.8081 5.1845 16.3558C4.92248 15.8415 4.92248 15.1683 4.92248 13.822V4.8471" stroke="#344054" stroke-width="1.60266" stroke-linecap="round" stroke-linejoin="round"/>
</g>
<defs>
<clipPath id="clip0_213_394">
<rect width="19.2319" height="19.2319" fill="white" transform="translate(0.916016 0.0391235)"/>
</clipPath>
</defs>
</svg>
