<svg width="77" height="49" viewBox="0 0 77 49" fill="none" xmlns="http://www.w3.org/2000/svg">
<path d="M45.868 0.000816693L70.4796 0.861622L77 7.86649L75.7991 42.3167C75.781 42.8345 75.567 43.326 75.2005 43.6917C74.834 44.0573 74.3424 44.2697 73.8254 44.2857H73.6909L55.7032 43.6561V46.6444C55.7032 47.0776 55.5314 47.493 55.2257 47.7994C54.9199 48.1057 54.5052 48.2778 54.0727 48.2778H24.7237C24.2913 48.2778 23.8766 48.1057 23.5708 47.7994C23.265 47.493 23.0932 47.0776 23.0932 46.6444V43.5973L3.47504 44.2833C2.95796 44.3015 2.45335 44.122 2.06351 43.7812C1.67368 43.4404 1.42781 42.9638 1.37577 42.4482L1.3668 42.3142L0.001255 3.13696C-0.0168906 2.61896 0.162294 2.11345 0.502472 1.72292C0.84265 1.33239 1.31836 1.08608 1.83312 1.03395L1.96682 1.02496L26.5784 0.164157L32.4824 5.67935L32.361 5.80921H43.6253L43.7598 1.9707C43.7776 1.45258 43.9914 0.960626 44.3579 0.594648C44.7245 0.22867 45.2163 0.016077 45.7335 0L45.868 0.000816693ZM48.3652 6.62591H24.7237C24.524 6.62594 24.3313 6.69938 24.1821 6.83231C24.0329 6.96523 23.9375 7.1484 23.9142 7.34706L23.9085 7.44262V31.127H40.2135C40.4297 31.127 40.637 31.2131 40.7899 31.3662C40.9428 31.5194 41.0287 31.7271 41.0287 31.9437V40.9274C41.0287 41.1441 40.9428 41.3518 40.7899 41.5049C40.637 41.6581 40.4297 41.7442 40.2135 41.7442H23.9085V46.6444C23.9085 46.8444 23.9818 47.0375 24.1145 47.187C24.2472 47.3365 24.43 47.432 24.6283 47.4554L24.7237 47.4611H54.0727C54.2724 47.461 54.4651 47.3876 54.6144 47.2547C54.7636 47.1218 54.8589 46.9386 54.8823 46.7399L54.888 46.6444V13.1595H48.366L48.3652 6.62591ZM45.8395 0.816703C45.5356 0.805967 45.2387 0.909029 45.0065 1.10578C44.7744 1.30254 44.6238 1.57887 44.584 1.88087L44.5742 1.99847L44.4414 5.80921H49.1812L55.7032 12.3428V20.2069C56.9943 19.549 58.4314 19.2313 59.8789 19.284C64.6041 19.449 68.3005 23.4198 68.135 28.1534C67.9695 32.887 64.0065 36.5891 59.2814 36.4233C58.0355 36.3804 56.8141 36.0655 55.7024 35.5005V42.8394L73.7194 43.4698C74.0233 43.4806 74.3203 43.3775 74.5524 43.1808C74.7845 42.984 74.9352 42.7077 74.9749 42.4057L74.9847 42.2881L76.1489 8.82366L70.0402 8.60969L69.225 8.5811L69.4671 1.64239L45.8395 0.816703ZM25.6221 1.01271L1.99536 1.84167C1.69155 1.85226 1.40258 1.97582 1.18478 2.18827C0.966986 2.40072 0.835984 2.68681 0.81732 2.99077L0.81569 3.10919L2.18123 42.2864C2.19181 42.5908 2.31515 42.8803 2.52722 43.0985C2.73929 43.3166 3.02488 43.4479 3.32829 43.4666L3.4465 43.4682L23.0924 42.7814V41.7442H22.278C22.0617 41.7442 21.8544 41.6581 21.7015 41.5049C21.5486 41.3518 21.4627 41.1441 21.4627 40.9274V35.8925L15.4258 36.1032V36.104L14.6105 36.1326L10.5375 36.2747L9.7223 36.3041L9.12472 19.1631L23.0932 18.6747V7.44262C23.0932 7.00941 23.265 6.59395 23.5708 6.28762C23.8766 5.9813 24.2913 5.80921 24.7237 5.80921H25.7892L25.6221 1.01271ZM47.5507 40.1107V40.9274H42.6592V40.1107H47.5507ZM25.7958 33.5771H23.9085V39.294H24.9707V37.1959H25.8325C27.1238 37.1959 28.1127 36.6104 28.1127 35.3428C28.1127 34.0141 27.1238 33.5771 25.7958 33.5771ZM30.8422 33.5771H29.2402V39.294H30.8984C32.6757 39.294 33.7567 38.3058 33.7567 36.4094C33.7567 34.5212 32.6757 33.5771 30.8438 33.5771M38.583 33.5771H34.9649V39.294H36.0272V36.9076H38.2071V36.0509H36.0272V34.4338H38.583V33.5771ZM30.7696 34.3987C31.9786 34.3987 32.6659 35.0112 32.6659 36.4094C32.6659 37.7603 32.0324 38.4185 30.9123 38.4692L30.7696 38.4724H30.3025V34.3987H30.7696ZM47.5507 36.0272V36.8439H42.6592V36.0272H47.5507ZM25.7126 34.3897C26.6012 34.3897 27.0684 34.6266 27.0684 35.3428C27.0684 36.0011 26.6877 36.3417 25.9018 36.38L25.7493 36.3833H24.9707V34.3906L25.7126 34.3897ZM55.7252 21.1232L55.7024 21.1363V34.571C56.8013 35.2091 58.0405 35.5654 59.3099 35.6083C63.3087 35.7471 66.7042 32.8249 67.2496 28.9423L59.552 28.6728L59.8504 20.0999C58.4068 20.0468 56.9773 20.4014 55.7252 21.1232ZM14.4679 32.0515L10.3941 32.1944L10.5082 35.458L14.582 35.3159L14.4679 32.0515ZM21.4733 31.8065L15.2831 32.0229L15.3973 35.2873L21.4611 35.075L21.4627 31.9437C21.4627 31.8969 21.4657 31.8512 21.4733 31.8065ZM47.5507 31.9437V32.7604H42.6592V31.9437H47.5507ZM14.3268 27.9705L10.253 28.1134L10.3672 31.3777L14.4402 31.2356L14.3268 27.9705ZM23.0924 27.6634L15.1413 27.9419L15.2554 31.207L23.0924 30.9326V27.6634ZM47.5507 27.8602V28.6769H31.2457V27.8602H47.5507ZM14.1842 23.8894L10.1104 24.0323L10.2245 27.2967L14.2983 27.1546L14.1842 23.8894ZM23.0932 23.5774L15.0002 23.8608L15.1144 27.126L23.0932 26.8467V23.5774ZM47.5507 23.7767V24.5934H31.2457V23.7767H47.5507ZM14.0423 19.8083L9.9685 19.9512L10.0826 23.2156L14.1556 23.0735L14.0423 19.8083ZM23.0924 19.4923L14.8567 19.7806L14.9709 23.0449L23.0924 22.7607V19.4923ZM49.1804 6.96403V12.3428H54.5488L49.1804 6.96403ZM70.275 1.84085L70.0679 7.7938L76.0111 8.00124L70.275 1.84085ZM26.4439 1.154L26.6069 5.80921H31.4259L26.4439 1.154Z" fill="#8043F9"/>
</svg>
