<svg width="161" height="101" viewBox="0 0 161 101" fill="none" xmlns="http://www.w3.org/2000/svg">
<path d="M95.9059 0.00170857L147.367 1.80256L161 16.4572L158.489 88.529C158.451 89.6123 158.004 90.6407 157.237 91.4056C156.471 92.1705 155.443 92.6148 154.362 92.6484H154.081L116.47 91.3311V97.5828C116.47 98.4891 116.111 99.3583 115.472 99.9991C114.832 100.64 113.965 101 113.061 101H51.695C50.7909 101 49.9237 100.64 49.2844 99.9991C48.645 99.3583 48.2858 98.4891 48.2858 97.5828V91.2081L7.26598 92.6433C6.18483 92.6813 5.12972 92.3058 4.31461 91.5928C3.4995 90.8799 2.98542 89.8829 2.8766 88.8041L2.85785 88.5239L0.00262409 6.5627C-0.0353168 5.47903 0.339342 4.42145 1.05062 3.60444C1.7619 2.78743 2.75656 2.27215 3.83289 2.16308L4.11245 2.14428L55.573 0.343427L67.9178 11.8815L67.6639 12.1532H91.2165L91.4978 4.12283C91.5349 3.03889 91.982 2.00969 92.7484 1.24404C93.5148 0.478391 94.5431 0.033634 95.6246 0L95.9059 0.00170857ZM101.127 13.8618H51.695C51.2775 13.8619 50.8745 14.0155 50.5625 14.2936C50.2505 14.5717 50.0512 14.9549 50.0024 15.3705L49.9904 15.5704V65.1196H84.0827C84.5348 65.1196 84.9684 65.2996 85.288 65.62C85.6077 65.9404 85.7873 66.375 85.7873 66.8282V85.6227C85.7873 86.0758 85.6077 86.5104 85.288 86.8308C84.9684 87.1513 84.5348 87.3313 84.0827 87.3313H49.9904V97.5828C49.9905 98.0013 50.1438 98.4052 50.4212 98.718C50.6987 99.0307 51.081 99.2305 51.4956 99.2794L51.695 99.2914H113.061C113.479 99.2914 113.882 99.1377 114.194 98.8596C114.506 98.5815 114.705 98.1983 114.754 97.7827L114.766 97.5828V27.5305H101.129L101.127 13.8618ZM95.8462 1.70859C95.2109 1.68613 94.5899 1.90174 94.1046 2.31337C93.6192 2.72499 93.3042 3.30309 93.2211 3.93489L93.2007 4.18092L92.9228 12.1532H102.833L116.47 25.822V42.274C119.17 40.8976 122.175 40.2331 125.201 40.3433C135.081 40.6884 142.81 48.9956 142.464 58.8986C142.118 68.8016 133.832 76.5466 123.952 76.1998C121.347 76.11 118.793 75.4511 116.469 74.2691V89.6225L154.141 90.9415C154.776 90.964 155.397 90.7484 155.882 90.3367C156.368 89.9251 156.683 89.347 156.766 88.7152L156.786 88.4692L159.22 18.4596L146.448 18.012L144.743 17.9522L145.249 3.43598L95.8462 1.70859ZM53.5735 2.11865L4.17211 3.85287C3.53688 3.87503 2.93266 4.13354 2.47727 4.57799C2.02188 5.02245 1.74797 5.62097 1.70894 6.25686L1.70553 6.50461L4.56076 88.4658C4.58287 89.1025 4.84078 89.7081 5.28419 90.1646C5.72761 90.621 6.32474 90.8956 6.95915 90.9347L7.20632 90.9381L48.2841 89.5012V87.3313H46.5812C46.1291 87.3313 45.6955 87.1513 45.3759 86.8308C45.0562 86.5104 44.8766 86.0758 44.8766 85.6227V75.0892L32.2539 75.53V75.5317L30.5493 75.5915L22.0331 75.8888L20.3284 75.9503L19.079 40.0904L48.2858 39.0687V15.5704C48.2858 14.6641 48.645 13.7949 49.2844 13.1541C49.9237 12.5132 50.7909 12.1532 51.695 12.1532H53.923L53.5735 2.11865ZM99.4242 83.9141V85.6227H89.1965V83.9141H99.4242ZM53.9366 70.2453H49.9904V82.2055H52.2115V77.8161H54.0133C56.7134 77.8161 58.7811 76.591 58.7811 73.9393C58.7811 71.1594 56.7134 70.2453 53.9366 70.2453ZM64.4882 70.2453H61.1386V82.2055H64.6058C68.3218 82.2055 70.5822 80.1381 70.5822 76.1707C70.5822 72.2205 68.3218 70.2453 64.4916 70.2453M80.6735 70.2453H73.1084V82.2055H75.3295V77.213H79.8876V75.4207H75.3295V72.0377H80.6735V70.2453ZM64.3365 71.9642C66.8644 71.9642 68.3014 73.2456 68.3014 76.1707C68.3014 78.9967 66.9769 80.3739 64.6348 80.4798L64.3365 80.4866H63.3597V71.9642H64.3365ZM99.4242 75.3711V77.0797H89.1965V75.3711H99.4242ZM53.7627 71.9454C55.6208 71.9454 56.5975 72.4409 56.5975 73.9393C56.5975 75.3164 55.8015 76.0289 54.1582 76.1092L53.8394 76.1161H52.2115V71.9471L53.7627 71.9454ZM116.516 44.191L116.469 44.2184V72.3247C118.766 73.6595 121.357 74.4049 124.012 74.4946C132.373 74.7851 139.472 68.6717 140.613 60.5491L124.518 59.9852L125.142 42.0502C122.123 41.9391 119.134 42.681 116.516 44.191ZM30.251 67.0537L21.733 67.3527L21.9717 74.1802L30.4896 73.8829L30.251 67.0537ZM44.8987 66.5411L31.9556 66.9939L32.1943 73.8231L44.8732 73.3789L44.8766 66.8282C44.8766 66.7302 44.8828 66.6345 44.8987 66.5411ZM99.4242 66.8282V68.5368H89.1965V66.8282H99.4242ZM29.9561 58.5159L21.4381 58.8149L21.6768 65.6441L30.193 65.3468L29.9561 58.5159ZM48.2841 57.8734L31.659 58.4561L31.8977 65.287L48.2841 64.7129V57.8734ZM99.4242 58.2852V59.9938H65.3319V58.2852H99.4242ZM29.6578 49.978L21.1398 50.277L21.3785 57.1063L29.8964 56.809L29.6578 49.978ZM48.2858 49.3253L31.3641 49.9182L31.6028 56.7492L48.2858 56.1648V49.3253ZM99.4242 49.7422V51.4508H65.3319V49.7422H99.4242ZM29.3612 41.4402L20.8432 41.7392L21.0819 48.5684L29.5981 48.2711L29.3612 41.4402ZM48.2841 40.779L31.0641 41.3821L31.3027 48.2113L48.2841 47.6168V40.779ZM102.832 14.5692V25.822H114.057L102.832 14.5692ZM146.939 3.85117L146.506 16.3051L158.932 16.7391L146.939 3.85117ZM55.2918 2.41424L55.6327 12.1532H65.7087L55.2918 2.41424Z" fill="#8043F9"/>
</svg>
